<svg xmlns="http://www.w3.org/2000/svg" width="1200" height="675" viewBox="0 0 1200 675" role="img" aria-labelledby="title desc">
  <title id="title">GitHub project placeholder</title>
  <desc id="desc">Neutral placeholder used before portfolio screenshots are generated.</desc>
  <rect width="1200" height="675" fill="#111827"/>
  <rect x="72" y="72" width="1056" height="531" rx="28" fill="#1f2937"/>
  <rect x="108" y="116" width="984" height="64" rx="16" fill="#374151"/>
  <circle cx="143" cy="148" r="10" fill="#ef4444"/>
  <circle cx="176" cy="148" r="10" fill="#f59e0b"/>
  <circle cx="209" cy="148" r="10" fill="#22c55e"/>
  <rect x="130" y="235" width="360" height="28" rx="8" fill="#e5e7eb"/>
  <rect x="130" y="290" width="655" height="18" rx="6" fill="#9ca3af"/>
  <rect x="130" y="328" width="540" height="18" rx="6" fill="#9ca3af"/>
  <rect x="130" y="397" width="130" height="38" rx="10" fill="#2563eb"/>
  <rect x="286" y="397" width="130" height="38" rx="10" fill="#4b5563"/>
  <rect x="826" y="240" width="196" height="196" rx="32" fill="#030712"/>
  <path d="M924 285c-45 0-82 37-82 82 0 36 23 66 55 77 4 1 6-2 6-5v-24c-22 5-27-9-27-9-4-9-9-12-9-12-7-5 1-5 1-5 8 1 13 9 13 9 7 13 19 9 23 7 1-5 3-9 5-11-18-2-37-9-37-40 0-9 3-16 8-22-1-2-4-10 1-22 0 0 7-2 23 8 7-2 14-3 21-3s14 1 21 3c16-10 23-8 23-8 5 12 2 20 1 22 5 6 8 13 8 22 0 31-19 38-37 40 3 3 6 8 6 17v30c0 3 2 6 7 5 32-11 54-41 54-77-2-45-39-82-84-82z" fill="#f9fafb"/>
  <rect x="130" y="504" width="205" height="22" rx="8" fill="#60a5fa"/>
  <rect x="360" y="504" width="160" height="22" rx="8" fill="#34d399"/>
  <rect x="545" y="504" width="180" height="22" rx="8" fill="#fbbf24"/>
</svg>
